<svg width="94" height="94" viewBox="0 0 94 94" fill="none" xmlns="http://www.w3.org/2000/svg">
<path d="M93.1953 47.5C93.1953 73.1812 72.3766 94 46.6953 94C21.0141 94 0.195312 73.1812 0.195312 47.5C0.195312 21.8188 21.0141 1 46.6953 1C72.3766 1 93.1953 21.8188 93.1953 47.5ZM10.4253 47.5C10.4253 67.5314 26.6639 83.77 46.6953 83.77C66.7267 83.77 82.9653 67.5314 82.9653 47.5C82.9653 27.4686 66.7267 11.23 46.6953 11.23C26.6639 11.23 10.4253 27.4686 10.4253 47.5Z" fill="#EDEDED"/>
<path d="M46.5977 5.115C46.5977 2.29006 44.3006 -0.0291008 41.4928 0.281014C33.5064 1.16307 25.8533 4.10402 19.3014 8.85478C11.3637 14.6103 5.44842 22.7277 2.40089 32.0468C-0.646644 41.3659 -0.670481 51.4098 2.33278 60.7433C5.33605 70.0767 11.2127 78.2221 19.123 84.0152C27.0333 89.8084 36.5723 92.9529 46.3769 92.9995C56.1816 93.046 65.75 89.9922 73.715 84.2744C81.6799 78.5565 87.6336 70.4674 90.7253 61.1628C93.2773 53.4827 93.7715 45.2989 92.2023 37.4187C91.6506 34.6481 88.7463 33.1581 86.0531 34.0106V34.0106C83.3599 34.8631 81.9064 37.7371 82.3719 40.5234C83.3414 46.3264 82.8886 52.3053 81.0172 57.937C78.6057 65.1946 73.9618 71.5041 67.7491 75.964C61.5365 80.4239 54.0731 82.8059 46.4255 82.7696C38.7779 82.7333 31.3374 80.2806 25.1674 75.7619C18.9974 71.2432 14.4136 64.8899 12.0711 57.6098C9.72851 50.3297 9.7471 42.4954 12.1242 35.2265C14.5013 27.9576 19.1152 21.6261 25.3066 17.1367C30.111 13.6531 35.6745 11.417 41.4995 10.5901C44.2964 10.193 46.5977 7.93994 46.5977 5.115V5.115Z" fill="#20CD7F"/>
</svg>
