<svg width="38" height="38" viewBox="0 0 38 38" fill="none" xmlns="http://www.w3.org/2000/svg">
<path fill-rule="evenodd" clip-rule="evenodd" d="M35.9778 11.9585C28.8457 25.2204 14.5987 30.6122 1.3662 23.146C0.925693 22.8974 0.367076 23.0528 0.118462 23.4879C-0.130151 23.9307 0.0252489 24.4901 0.465761 24.7387C14.6492 32.7487 29.9458 27.0384 37.5907 12.8286C37.83 12.3858 37.663 11.8263 37.2178 11.5855C36.7726 11.3524 36.2171 11.5156 35.9778 11.9585Z" fill="#181B19"/>
<path d="M12.5015 17.4581C13.9748 17.4581 15.1691 16.2639 15.1691 14.7906C15.1691 13.3173 13.9748 12.123 12.5015 12.123C11.0283 12.123 9.83398 13.3173 9.83398 14.7906C9.83398 16.2639 11.0283 17.4581 12.5015 17.4581Z" fill="#181B19"/>
<path d="M23.5451 14.6205C24.9896 14.6205 26.1606 13.4495 26.1606 12.0051C26.1606 10.5606 24.9896 9.38965 23.5451 9.38965C22.1006 9.38965 20.9297 10.5606 20.9297 12.0051C20.9297 13.4495 22.1006 14.6205 23.5451 14.6205Z" fill="#181B19"/>
</svg>
