<svg width="126" height="100" viewBox="0 0 126 100" fill="none" xmlns="http://www.w3.org/2000/svg">
<path fill-rule="evenodd" clip-rule="evenodd" d="M75.7077 41.6937C75.7591 39.681 75.5733 37.6415 75.1221 35.5777C73.54 28.335 65.3998 23.4039 56.5851 21.9719C47.7739 20.54 38.4692 22.6388 34.6743 28.7346C32.5037 32.2199 32.1023 35.2818 32.8294 37.9053C33.5535 40.5149 35.4287 42.7287 38.0227 44.4986C45.2551 49.4286 58.2049 50.8885 64.2063 49.1837C66.9819 48.3937 69.7017 47.4174 72.3578 46.2822C70.5468 54.3287 64.6897 61.7881 57.0042 68.4146C40.3016 82.8168 14.8532 93.2435 1.07404 96.9024C0.333717 97.0989 -0.102683 97.8528 0.0961575 98.5867C0.294998 99.3206 1.05586 99.7571 1.79618 99.5605C15.8481 95.829 41.7926 85.1788 58.8255 70.4908C67.6249 62.9045 74.0244 54.2263 75.4271 44.8923C95.0131 35.4915 111.496 17.6834 125.579 2.70521C126.102 2.15271 126.07 1.27951 125.509 0.760597C124.947 0.245152 124.07 0.272991 123.546 0.82896C110.038 15.1941 94.3436 32.297 75.7077 41.6937ZM72.8604 43.0576C73.0547 40.8004 72.9213 38.4955 72.4074 36.1548C71.0391 29.8863 63.7685 25.9239 56.1379 24.6846C51.4605 23.9267 46.609 24.2075 42.7527 25.7364C40.3278 26.6966 38.304 28.1486 37.0389 30.1828C35.3773 32.851 34.9491 35.1719 35.5078 37.1775C36.066 39.1969 37.5847 40.8617 39.5951 42.2299C46.1858 46.7246 57.9753 48.0901 63.4379 46.5377C66.6602 45.6229 69.7981 44.4477 72.8604 43.0576Z" fill="#181B19"/>
</svg>
