<svg width="33" height="35" viewBox="0 0 33 35" fill="none" xmlns="http://www.w3.org/2000/svg">
<path fill-rule="evenodd" clip-rule="evenodd" d="M12.8638 6.89703C12.77 6.34078 12.6994 5.79084 12.6538 5.24084C12.585 4.41584 12.6275 3.58453 12.6031 2.75953C12.5925 2.40953 12.5506 1.49704 12.5675 1.36579C12.7206 0.222045 13.6437 0.0470235 13.9137 0.0157735C14.0444 -0.00297652 15.3856 -0.152909 15.675 1.33459C16.03 3.15334 16.1438 4.98457 16.0181 6.77832C16.3113 8.30332 16.8125 9.82203 17.4744 11.197C20.1081 16.6658 25.1269 17.197 30.5644 17.147C31.4006 17.1345 32.095 17.7908 32.1388 18.622C32.1825 19.4595 31.56 20.1845 30.7275 20.2595C27.6881 20.5533 22.2956 22.9908 20.4312 25.5283C20.0412 26.0596 19.8144 27.3408 19.5144 28.5971C19.0956 30.3408 18.5975 32.0658 18.0394 32.7908C17.9556 32.9033 16.9375 34.0533 16.6337 34.2221C15.9037 34.6221 15.3194 34.3908 14.9875 34.1783C14.6556 33.9658 14.28 33.547 14.13 32.8533C13.9731 32.1283 14.1056 30.6408 14.0813 30.322C13.9925 29.1658 13.7613 26.897 13.2894 24.947C13.035 23.897 12.7638 22.9283 12.315 22.447C10.6538 20.6658 7.99751 20.9283 5.76063 21.2221C5.50376 21.2533 5.24689 21.2908 4.99064 21.3221C4.08001 21.5908 3.11311 21.7908 2.09124 21.9095C0.548112 22.0908 0.294379 20.672 0.280629 20.5783C0.251879 20.372 0.144993 19.3096 1.30812 18.8846C1.43499 18.8408 2.37125 18.6345 2.73188 18.5533C3.23438 18.4408 3.74249 18.3533 4.25249 18.2721C9.52062 16.6346 12.3819 12.0345 12.8638 6.89703ZM14.6719 12.5783C16.6606 16.6908 19.6787 18.6783 23.2562 19.5783H23.2556C21.0219 20.7471 18.99 22.2096 17.9131 23.6783C17.5044 24.2346 17.1294 25.3533 16.7913 26.6096C16.6081 25.4408 16.3606 24.197 16.0338 23.1345C15.6619 21.922 15.1612 20.9158 14.6025 20.3158C13.5237 19.1596 12.17 18.5158 10.7144 18.1971C12.4569 16.6533 13.7781 14.7283 14.6719 12.5783Z" fill="#181B19"/>
</svg>
