<svg width="65" height="53" viewBox="0 0 65 53" fill="none" xmlns="http://www.w3.org/2000/svg">
<path d="M60.0058 0.377876C62.2711 4.30149 63.7414 8.63288 64.3327 13.1247C64.9241 17.6166 64.6249 22.1809 63.4523 26.5571C62.2797 30.9334 60.2566 35.0358 57.4986 38.6301C54.7405 42.2245 51.3015 45.2405 47.3779 47.5058C43.4543 49.7711 39.1229 51.2414 34.631 51.8327C30.1392 52.4241 25.5748 52.1249 21.1986 50.9523C16.8224 49.7797 12.72 47.7566 9.1256 44.9986C5.53123 42.2405 2.5153 38.8015 0.249998 34.8779L12.7987 27.6329C14.1126 29.9086 15.8618 31.9032 17.9466 33.5029C20.0313 35.1025 22.4107 36.2759 24.9489 36.9561C27.4871 37.6362 30.1344 37.8097 32.7397 37.4667C35.345 37.1237 37.8572 36.2709 40.1329 34.957C42.4086 33.6432 44.4032 31.8939 46.0029 29.8092C47.6025 27.7245 48.7759 25.3451 49.4561 22.8068C50.1362 20.2686 50.3097 17.6213 49.9667 15.016C49.6237 12.4108 48.7709 9.89857 47.457 7.62288L60.0058 0.377876Z" fill="#FED696"/>
</svg>
