<svg width="58" height="23" viewBox="0 0 58 23" fill="none" xmlns="http://www.w3.org/2000/svg">
<path d="M10 12.543V7.59766H6.17969C5.50781 7.59766 4.96875 7.82812 4.5625 8.28906C4.15625 8.74219 3.95312 9.32031 3.95312 10.0234C3.95312 10.7891 4.15625 11.4023 4.5625 11.8633C4.96875 12.3164 5.50781 12.543 6.17969 12.543H10ZM13.4336 16V17.3008C13.4336 18.6445 12.9688 19.7617 12.0391 20.6523C11.1562 21.5508 10.0938 22.0234 8.85156 22.0703H3.0625L1.57422 18.6367H8.69922C8.94141 18.6367 9.12891 18.6094 9.26172 18.5547C9.40234 18.5 9.52734 18.4023 9.63672 18.2617C9.89453 17.9883 10.0234 17.668 10.0234 17.3008L10 12.543L7.84375 15.9766L6.17969 16C5.17188 16 4.24219 15.7617 3.39062 15.2852C2.54688 14.8008 1.85547 14.1172 1.31641 13.2344C0.785156 12.3438 0.519531 11.2734 0.519531 10.0234C0.519531 8.83594 0.785156 7.80469 1.31641 6.92969C1.85547 6.04688 2.54688 5.36328 3.39062 4.87891C4.24219 4.38672 5.17188 4.14062 6.17969 4.14062H13.4336V12.5898H15.7539V16H13.4336ZM15.1797 16V12.5898H18.25C18.6172 12.5898 18.9297 12.4531 19.1875 12.1797C19.4453 11.9297 19.5742 11.6172 19.5742 11.2422V5.41797L22.9844 4.11719V11.2422C22.9844 11.7266 22.9336 12.1758 22.832 12.5898H25.457V16H15.1797ZM19.3867 0.238281L22.8438 0.214844V2.88672L19.3867 4.16406V0.238281ZM24.8594 16V12.5898H28.3633C28.7305 12.5898 29.043 12.4531 29.3008 12.1797C29.5586 11.9297 29.6875 11.6172 29.6875 11.2422V5.41797L33.0859 4.11719V11.2422C33.0859 11.7266 33.0391 12.1758 32.9453 12.5898H35.5586V16H24.8594ZM33.5664 21.0156H25.6914L26.9688 17.5586H33.6367L33.5664 21.0156ZM35.0781 16V12.5898H38.2188C38.5859 12.5898 38.8984 12.4531 39.1562 12.1797C39.3984 11.9297 39.5195 11.6172 39.5195 11.2422V5.41797L42.9531 4.11719V11.2422C42.9531 12.5703 42.4883 13.6836 41.5586 14.582C40.6289 15.5273 39.5156 16 38.2188 16H35.0781ZM40.5508 20.9805H36.625L37.9023 17.5234H40.5742L40.5508 20.9805ZM53.8516 12.543V7.59766H50.0312C49.3594 7.59766 48.8203 7.82812 48.4141 8.28906C48.0078 8.74219 47.8047 9.32031 47.8047 10.0234C47.8047 10.7891 48.0078 11.4023 48.4141 11.8633C48.8203 12.3164 49.3594 12.543 50.0312 12.543H53.8516ZM53.8516 12.543L51.6953 15.9766L50.0312 16C49.0234 16 48.0938 15.7617 47.2422 15.2852C46.3984 14.8008 45.707 14.1172 45.168 13.2344C44.6367 12.3438 44.3711 11.2734 44.3711 10.0234C44.3711 8.83594 44.6367 7.80469 45.168 6.92969C45.707 6.04688 46.3984 5.36328 47.2422 4.87891C48.0938 4.38672 49.0234 4.14062 50.0312 4.14062H57.2852V17.3008C57.2852 18.6445 56.8203 19.7617 55.8906 20.6523C55.0078 21.5508 53.9453 22.0234 52.7031 22.0703H46.9141L45.4258 18.6367H52.5508C52.793 18.6367 52.9805 18.6094 53.1133 18.5547C53.2539 18.5 53.3789 18.4023 53.4883 18.2617C53.7461 17.9883 53.875 17.668 53.875 17.3008L53.8516 12.543Z" fill="#181B19"/>
</svg>
