<svg width="64" height="64" viewBox="0 0 64 64" fill="none" xmlns="http://www.w3.org/2000/svg">
<rect x="0.147461" y="0.5" width="63" height="63" rx="31.5" fill="#947DF0"/>
<circle opacity="0.4" cx="31.6475" cy="32" r="18.5" fill="white"/>
<path d="M41.0215 28.25C41.0215 29.2855 40.182 30.125 39.1465 30.125C38.1109 30.125 37.2715 29.2855 37.2715 28.25C37.2715 27.2145 38.1109 26.375 39.1465 26.375C40.182 26.375 41.0215 27.2145 41.0215 28.25Z" fill="white"/>
<path d="M26.0215 28.25C26.0215 29.2855 25.182 30.125 24.1465 30.125C23.1109 30.125 22.2715 29.2855 22.2715 28.25C22.2715 27.2145 23.1109 26.375 24.1465 26.375C25.182 26.375 26.0215 27.2145 26.0215 28.25Z" fill="white"/>
<path fill-rule="evenodd" clip-rule="evenodd" d="M26.9488 36.5678C26.3682 36.0584 25.4844 36.1126 24.9705 36.6908C24.4545 37.2712 24.5068 38.1601 25.0872 38.6761L26.0215 37.625C25.0872 38.6761 25.0868 38.6757 25.0872 38.6761L25.089 38.6777L25.091 38.6794L25.0957 38.6835L25.1073 38.6936L25.1402 38.7217C25.1664 38.7438 25.2012 38.7725 25.2443 38.8067C25.3306 38.8752 25.4505 38.9664 25.603 39.0724C25.9073 39.2841 26.344 39.5573 26.9021 39.8279C28.0184 40.3691 29.6342 40.9063 31.6465 40.9063C33.6588 40.9063 35.2746 40.3691 36.3909 39.8279C36.949 39.5573 37.3857 39.2841 37.69 39.0724C37.8425 38.9664 37.9624 38.8752 38.0487 38.8067C38.0918 38.7725 38.1265 38.7438 38.1528 38.7217L38.1857 38.6936L38.1973 38.6835L38.202 38.6794L38.204 38.6777C38.2044 38.6773 38.2058 38.6761 37.2715 37.625L38.2058 38.6761C38.7862 38.1601 38.8385 37.2712 38.3225 36.6908C37.8086 36.1126 36.9248 36.0584 36.3442 36.5678L36.3426 36.5693C36.3362 36.5746 36.3207 36.5874 36.2993 36.6044C36.2565 36.6385 36.1842 36.6938 36.0839 36.7636C35.8829 36.9034 35.5726 37.099 35.1638 37.2972C34.3465 37.6934 33.1498 38.0938 31.6465 38.0938C30.1432 38.0938 28.9465 37.6934 28.1291 37.2972C27.7204 37.099 27.4101 36.9034 27.2091 36.7636C27.1088 36.6938 27.0365 36.6385 26.9937 36.6044C26.9723 36.5874 26.9583 36.5758 26.9519 36.5704C26.9505 36.5693 26.9494 36.5684 26.9488 36.5678C26.9488 36.5678 26.9488 36.5678 26.9488 36.5678ZM36.3442 36.5678L36.3426 36.5693L36.3403 36.5713L36.3388 36.5725C36.3409 36.5707 36.3422 36.5696 36.3442 36.5678Z" fill="white"/>
</svg>
