<svg width="230" height="402" viewBox="0 0 230 402" fill="none" xmlns="http://www.w3.org/2000/svg">
<path d="M167.32 69.0461C189.418 102.314 211.279 206.308 144 262.5C59.9016 332.74 1.49983 360 1.49983 360" stroke="url(#paint0_radial_708_113)" stroke-opacity="0.4" stroke-width="2.5" stroke-linecap="round" stroke-dasharray="8 8"/>
<g filter="url(#filter0_d_708_113)">
<path d="M142.279 42.2041C142.279 37.5581 142.279 35.2351 143.008 33.7657C144.261 31.2388 146.908 29.7106 149.722 29.8891C151.359 29.9929 153.371 31.1544 157.394 33.4774L162.814 36.6065C166.55 38.7636 168.418 39.8422 169.105 40.5562C172.726 44.3203 171.099 50.5804 166.103 52.1044C165.155 52.3935 162.992 52.4257 158.665 52.4901C158.566 52.4916 158.517 52.4923 158.471 52.4973C158.188 52.5277 157.931 52.6772 157.765 52.9084C157.739 52.9459 157.714 52.9883 157.664 53.0731C155.821 56.2157 154.9 57.787 154.328 58.3828C150.493 62.3751 143.76 60.5468 142.472 55.1631C142.279 54.3597 142.279 52.5382 142.279 48.8952L142.279 42.2041Z" fill="#947DF0" fill-opacity="0.3" shape-rendering="crispEdges"/>
<path d="M158.31 51.0059L158.31 51.0059C157.603 51.0819 156.962 51.4558 156.547 52.0336L156.547 52.0337C156.477 52.1308 156.417 52.2334 156.381 52.2963C156.377 52.3027 156.373 52.3088 156.37 52.3143L156.37 52.3144C155.445 53.8926 154.764 55.0525 154.244 55.8937C153.702 56.77 153.405 57.1775 153.246 57.3437C150.233 60.4805 144.943 59.044 143.93 54.8139C143.877 54.5898 143.827 54.0885 143.803 53.0583C143.779 52.0694 143.779 50.7247 143.779 48.8952L143.779 42.2041C143.779 39.8596 143.78 38.1775 143.867 36.895C143.954 35.6042 144.121 34.8964 144.352 34.432C145.336 32.4466 147.416 31.2459 149.627 31.3861C150.145 31.4189 150.841 31.6281 152.003 32.1978C153.157 32.7638 154.614 33.6042 156.644 34.7764L162.064 37.9055C163.941 38.9889 165.319 39.785 166.316 40.3995C167.354 41.0392 167.832 41.3963 168.024 41.5961C170.869 44.5536 169.59 49.4723 165.665 50.6697C165.4 50.7505 164.808 50.8297 163.586 50.8829C162.412 50.934 160.816 50.9579 158.642 50.9903C158.636 50.9904 158.629 50.9905 158.621 50.9906C158.548 50.9915 158.429 50.9931 158.31 51.0059Z" stroke="#947DF0" stroke-width="3" shape-rendering="crispEdges"/>
</g>
<defs>
<filter id="filter0_d_708_113" x="109.279" y="0.875" width="94.7852" height="96.6641" filterUnits="userSpaceOnUse" color-interpolation-filters="sRGB">
<feFlood flood-opacity="0" result="BackgroundImageFix"/>
<feColorMatrix in="SourceAlpha" type="matrix" values="0 0 0 0 0 0 0 0 0 0 0 0 0 0 0 0 0 0 127 0" result="hardAlpha"/>
<feOffset dy="4"/>
<feGaussianBlur stdDeviation="16.5"/>
<feComposite in2="hardAlpha" operator="out"/>
<feColorMatrix type="matrix" values="0 0 0 0 1 0 0 0 0 1 0 0 0 0 1 0 0 0 0.25 0"/>
<feBlend mode="normal" in2="BackgroundImageFix" result="effect1_dropShadow_708_113"/>
<feBlend mode="normal" in="SourceGraphic" in2="effect1_dropShadow_708_113" result="shape"/>
</filter>
<radialGradient id="paint0_radial_708_113" cx="0" cy="0" r="1" gradientUnits="userSpaceOnUse" gradientTransform="translate(174.827 92.3256) rotate(85.4368) scale(261.658 156.692)">
<stop stop-color="#947DF0"/>
<stop offset="1" stop-color="#947DF0" stop-opacity="0"/>
</radialGradient>
</defs>
</svg>
