<svg width="64" height="64" viewBox="0 0 64 64" fill="none" xmlns="http://www.w3.org/2000/svg">
<rect x="0.5" y="0.853516" width="63" height="63" rx="31.5" fill="#F84440"/>
<path opacity="0.4" d="M50.75 32.3555C50.75 33.5563 50.6371 34.7308 50.4214 35.8689C48.7767 44.5449 41.1545 51.1055 32 51.1055C23.0419 51.1055 15.551 44.8233 13.6927 36.4242C13.4028 35.1142 13.25 33.7527 13.25 32.3555C13.25 22.0001 21.6447 13.6055 32 13.6055C42.3553 13.6055 50.75 22.0001 50.75 32.3555Z" fill="white"/>
<path d="M28.1609 39.5617L35.8405 32.6499C38.4632 30.2895 42.3766 30.0764 45.24 32.1381L50.4221 35.8692C48.7774 44.5452 41.1552 51.1058 32.0007 51.1058C23.0426 51.1058 15.5517 44.8236 13.6934 36.4245L18.7613 40.0735C21.6248 42.1352 25.5382 41.9221 28.1609 39.5617Z" fill="white"/>
<circle cx="26" cy="26.3555" r="3.5" fill="white"/>
</svg>
