<svg width="27" height="27" viewBox="0 0 27 27" fill="none" xmlns="http://www.w3.org/2000/svg">
<path d="M26.0702 0.938057C25.4036 0.256724 24.4169 0.00472365 23.4969 0.27139L2.04355 6.47006C1.07289 6.73939 0.384886 7.50872 0.199552 8.48472C0.0102191 9.47939 0.671552 10.7434 1.53555 11.2714L8.24355 15.3674C8.93155 15.7887 9.81955 15.6834 10.3889 15.1127L18.0702 7.43139C18.4569 7.03006 19.0969 7.03006 19.4836 7.43139C19.8702 7.81672 19.8702 8.44472 19.4836 8.84472L11.7889 16.5261C11.2182 17.0967 11.1116 17.9821 11.5316 18.6714L15.6302 25.4047C16.1102 26.2034 16.9369 26.6581 17.8436 26.6581C17.9502 26.6581 18.0702 26.6581 18.1769 26.6434C19.2169 26.5114 20.0436 25.8034 20.3502 24.8034L26.7102 3.51139C26.9902 2.60472 26.7369 1.61806 26.0702 0.938057Z" fill="white"/>
</svg>
