<svg width="72" height="73" viewBox="0 0 72 73" fill="none" xmlns="http://www.w3.org/2000/svg">
<circle cx="36" cy="36.3711" r="36" fill="#4397FA" fill-opacity="0.1"/>
<mask id="mask0_331_736" style="mask-type:luminance" maskUnits="userSpaceOnUse" x="20" y="20" width="32" height="33">
<path fill-rule="evenodd" clip-rule="evenodd" d="M20.167 20.5371H51.7593V52.1308H20.167V20.5371Z" fill="white"/>
</mask>
<g mask="url(#mask0_331_736)">
<path fill-rule="evenodd" clip-rule="evenodd" d="M29.1144 22.9121C25.1228 22.9121 22.542 25.6497 22.542 29.8851V42.7829C22.542 47.0199 25.1228 49.7559 29.1144 49.7559H42.8039C46.8018 49.7559 49.3842 47.0199 49.3842 42.7829V29.8851C49.3874 27.727 48.7287 25.9252 47.4811 24.6759C46.3284 23.5217 44.715 22.9121 42.8118 22.9121H29.1144ZM42.8039 52.1309H29.1144C23.7627 52.1309 20.167 48.3737 20.167 42.7829V29.8851C20.167 24.2944 23.7627 20.5371 29.1144 20.5371H42.8118C45.3578 20.5371 47.5539 21.3874 49.161 22.9976C50.8409 24.6791 51.7624 27.1254 51.7592 29.8867V42.7829C51.7592 48.3737 48.1603 52.1309 42.8039 52.1309V52.1309Z" fill="#4397FA"/>
</g>
<path fill-rule="evenodd" clip-rule="evenodd" d="M31.0228 29.5449C30.0665 29.5449 29.2891 30.3223 29.2891 31.2803C29.2891 32.2366 30.0665 33.014 31.0244 33.014C31.9807 33.014 32.7597 32.2366 32.7597 31.2818C32.7581 30.3239 31.9791 29.5465 31.0228 29.5449M31.0244 35.389C28.7571 35.389 26.9141 33.546 26.9141 31.2803C26.9141 29.0129 28.7571 27.1699 31.0244 27.1699C33.2901 27.1715 35.1331 29.0145 35.1347 31.2787V31.2803C35.1347 33.546 33.2917 35.389 31.0244 35.389" fill="#4397FA"/>
<path fill-rule="evenodd" clip-rule="evenodd" d="M22.9358 49.2126C22.7395 49.2126 22.54 49.1635 22.3563 49.0606C21.7831 48.7392 21.5821 48.0156 21.9019 47.444C21.9969 47.273 24.269 43.2561 26.7691 41.1977C28.7514 39.5669 30.8857 40.4631 32.6052 41.1867C33.617 41.6126 34.5733 42.0147 35.4916 42.0147C36.334 42.0147 37.3901 40.5264 38.3242 39.2138C39.621 37.3835 41.0935 35.3125 43.25 35.3125C46.6858 35.3125 49.6514 38.3778 51.2458 40.0245L51.4295 40.2145C51.8855 40.6847 51.8744 41.4368 51.4041 41.8944C50.9371 42.352 50.185 42.3409 49.7258 41.8691L49.539 41.6759C48.19 40.281 45.6788 37.6875 43.25 37.6875C42.319 37.6875 41.2265 39.2281 40.2591 40.5882C38.9322 42.4565 37.5595 44.3897 35.4916 44.3897C34.0936 44.3897 32.8126 43.8514 31.6837 43.3748C29.8882 42.618 29.0744 42.3757 28.278 43.0312C26.1183 44.8109 23.9935 48.5697 23.9729 48.6062C23.756 48.9941 23.3522 49.2126 22.9358 49.2126" fill="#4397FA"/>
</svg>
