<svg width="72" height="73" viewBox="0 0 72 73" fill="none" xmlns="http://www.w3.org/2000/svg">
<circle cx="36" cy="36.3711" r="36" fill="#F84440" fill-opacity="0.1"/>
<path fill-rule="evenodd" clip-rule="evenodd" d="M34.7522 35.123L33.0944 40.4224L38.3923 38.7631L40.0516 33.4637L34.7522 35.123ZM31.2831 43.4197C30.9728 43.4197 30.6688 43.2977 30.4424 43.0729C30.1304 42.7594 30.0164 42.2987 30.1494 41.8791L32.6717 33.8215C32.7873 33.4478 33.0786 33.1581 33.4491 33.0425L41.5067 30.5202C41.9294 30.3857 42.3886 30.5012 42.7021 30.8132C43.014 31.1267 43.128 31.5874 42.995 32.007L40.4744 40.0646C40.3588 40.4367 40.0659 40.728 39.6954 40.8436L31.6378 43.3658C31.5206 43.4022 31.4003 43.4197 31.2831 43.4197Z" fill="#F84440"/>
<mask id="mask0_331_728" style="mask-type:luminance" maskUnits="userSpaceOnUse" x="20" y="20" width="33" height="34">
<path fill-rule="evenodd" clip-rule="evenodd" d="M20.167 20.5371H52.9765V53.3465H20.167V20.5371Z" fill="white"/>
</mask>
<g mask="url(#mask0_331_728)">
<path fill-rule="evenodd" clip-rule="evenodd" d="M36.5719 22.9121C28.8357 22.9121 22.542 29.2074 22.542 36.942C22.542 44.6782 28.8357 50.9719 36.5719 50.9719C44.3081 50.9719 50.6018 44.6782 50.6018 36.942C50.6018 29.2074 44.3081 22.9121 36.5719 22.9121ZM36.5719 53.3469C27.5263 53.3469 20.167 45.9876 20.167 36.942C20.167 27.8964 27.5263 20.5371 36.5719 20.5371C45.6175 20.5371 52.9768 27.8964 52.9768 36.942C52.9768 45.9876 45.6175 53.3469 36.5719 53.3469Z" fill="#F84440"/>
</g>
</svg>
