<svg width="72" height="73" viewBox="0 0 72 73" fill="none" xmlns="http://www.w3.org/2000/svg">
<circle cx="36" cy="36.3711" r="36" fill="#947DF0" fill-opacity="0.1"/>
<mask id="mask0_331_712" style="mask-type:luminance" maskUnits="userSpaceOnUse" x="23" y="39" width="25" height="13">
<path fill-rule="evenodd" clip-rule="evenodd" d="M24 40.1152H47.7598V51.1762H24V40.1152Z" fill="white" stroke="white" stroke-width="0.3"/>
</mask>
<g mask="url(#mask0_331_712)">
<path fill-rule="evenodd" clip-rule="evenodd" d="M35.8815 42.3652C29.49 42.3652 26.25 43.4632 26.25 45.6307C26.25 47.8177 29.49 48.9262 35.8815 48.9262C42.2715 48.9262 45.51 47.8282 45.51 45.6607C45.51 43.4737 42.2715 42.3652 35.8815 42.3652ZM35.8815 51.1762C32.943 51.1762 24 51.1762 24 45.6307C24 40.6867 30.7815 40.1152 35.8815 40.1152C38.82 40.1152 47.76 40.1152 47.76 45.6607C47.76 50.6047 40.98 51.1762 35.8815 51.1762Z" fill="#947DF0"/>
<path d="M35.8815 42.2152C32.6811 42.2152 30.2534 42.4897 28.6208 43.0431C26.9918 43.5954 26.1 44.4482 26.1 45.6307H26.4C26.4 44.6458 27.1282 43.8659 28.7171 43.3272C30.3024 42.7898 32.6904 42.5152 35.8815 42.5152V42.2152ZM26.1 45.6307C26.1 46.8222 26.9906 47.6829 28.6204 48.2405C30.2532 48.7992 32.681 49.0762 35.8815 49.0762V48.7762C32.6905 48.7762 30.3026 48.499 28.7175 47.9567C27.1294 47.4133 26.4 46.6262 26.4 45.6307H26.1ZM35.8815 49.0762C39.0812 49.0762 41.5081 48.8018 43.1402 48.2484C44.7687 47.6961 45.66 46.8432 45.66 45.6607H45.36C45.36 46.6457 44.6321 47.4256 43.0438 47.9642C41.4591 48.5017 39.0718 48.7762 35.8815 48.7762V49.0762ZM45.66 45.6607C45.66 44.4693 44.7698 43.6086 43.1406 43.0509C41.5083 42.4923 39.0812 42.2152 35.8815 42.2152V42.5152C39.0718 42.5152 41.4589 42.7924 43.0434 43.3348C44.631 43.8781 45.36 44.6652 45.36 45.6607H45.66ZM35.8815 51.0262C34.4101 51.0262 31.4588 51.0255 28.8774 50.3381C27.5869 49.9944 26.4023 49.4824 25.5425 48.7242C24.6877 47.9704 24.15 46.9705 24.15 45.6307H23.85C23.85 47.0637 24.4302 48.1434 25.344 48.9492C26.2529 49.7507 27.4877 50.2785 28.8002 50.628C31.425 51.327 34.4144 51.3262 35.8815 51.3262V51.0262ZM24.15 45.6307C24.15 44.4331 24.5591 43.5076 25.2478 42.7868C25.9399 42.0623 26.9216 41.5377 28.0748 41.1616C30.3831 40.4087 33.3325 40.2652 35.8815 40.2652V39.9652C33.3305 39.9652 30.3391 40.1075 27.9817 40.8764C26.802 41.2611 25.7696 41.8064 25.0308 42.5796C24.2886 43.3565 23.85 44.3564 23.85 45.6307H24.15ZM35.8815 40.2652C37.3529 40.2652 40.3035 40.266 42.8841 40.9534C44.1742 41.297 45.3585 41.809 46.218 42.5672C47.0725 43.321 47.61 44.321 47.61 45.6607H47.91C47.91 44.2278 47.33 43.1481 46.4164 42.3423C45.5079 41.5408 44.2735 41.013 42.9613 40.6635C40.3373 39.9645 37.3486 39.9652 35.8815 39.9652V40.2652ZM47.61 45.6607C47.61 46.8584 47.201 47.7839 46.5125 48.5047C45.8205 49.2291 44.839 49.7538 43.6862 50.1299C41.3784 50.8828 38.4297 51.0262 35.8815 51.0262V51.3262C38.4318 51.3262 41.4224 51.184 43.7792 50.4151C44.9586 50.0303 45.9909 49.4851 46.7294 48.7119C47.4715 47.935 47.91 46.9351 47.91 45.6607H47.61Z" fill="#947DF0"/>
</g>
<mask id="mask1_331_712" style="mask-type:luminance" maskUnits="userSpaceOnUse" x="27" y="21" width="17" height="17">
<path fill-rule="evenodd" clip-rule="evenodd" d="M27.915 21.3711H43.8451V37.299H27.915V21.3711Z" fill="white" stroke="white" stroke-width="0.3"/>
</mask>
<g mask="url(#mask1_331_712)">
<path fill-rule="evenodd" clip-rule="evenodd" d="M35.8816 23.5131C32.6701 23.5131 30.0571 26.1246 30.0571 29.3361C30.0466 32.5371 32.6401 35.1471 35.8381 35.1591L35.8816 36.2301V35.1591C39.0916 35.1591 41.7031 32.5461 41.7031 29.3361C41.7031 26.1246 39.0916 23.5131 35.8816 23.5131ZM35.8816 37.2996H35.8336C31.4506 37.2861 27.9001 33.7116 27.9151 29.3316C27.9151 24.9441 31.4881 21.3711 35.8816 21.3711C40.2736 21.3711 43.8451 24.9441 43.8451 29.3361C43.8451 33.7281 40.2736 37.2996 35.8816 37.2996Z" fill="#947DF0"/>
<path d="M30.0571 29.3361L30.2071 29.3366V29.3361H30.0571ZM35.8381 35.1591L35.988 35.153L35.9821 35.0096L35.8386 35.0091L35.8381 35.1591ZM35.8816 36.2301L35.7317 36.2362L36.0316 36.2301H35.8816ZM35.8816 35.1591V35.0091H35.7316V35.1591H35.8816ZM35.8336 37.2996L35.8331 37.4496H35.8336V37.2996ZM27.9151 29.3316L28.0651 29.3321V29.3316H27.9151ZM35.8816 23.3631C32.5873 23.3631 29.9071 26.0417 29.9071 29.3361H30.2071C30.2071 26.2075 32.7529 23.6631 35.8816 23.6631V23.3631ZM29.9071 29.3356C29.8963 32.6194 32.5567 35.2968 35.8375 35.3091L35.8386 35.0091C32.7235 34.9974 30.1969 32.4548 30.2071 29.3366L29.9071 29.3356ZM35.6882 35.1652L35.7317 36.2362L36.0315 36.224L35.988 35.153L35.6882 35.1652ZM36.0316 36.2301V35.1591H35.7316V36.2301H36.0316ZM35.8816 35.3091C39.1745 35.3091 41.8531 32.6289 41.8531 29.3361H41.5531C41.5531 32.4633 39.0087 35.0091 35.8816 35.0091V35.3091ZM41.8531 29.3361C41.8531 26.0418 39.1745 23.3631 35.8816 23.3631V23.6631C39.0087 23.6631 41.5531 26.2074 41.5531 29.3361H41.8531ZM35.8816 37.1496H35.8336V37.4496H35.8816V37.1496ZM35.834 37.1496C31.5339 37.1364 28.0504 33.6292 28.0651 29.3321L27.7651 29.3311C27.7498 33.794 31.3673 37.4358 35.8331 37.4496L35.834 37.1496ZM28.0651 29.3316C28.0651 25.027 31.5709 21.5211 35.8816 21.5211V21.2211C31.4053 21.2211 27.7651 24.8612 27.7651 29.3316H28.0651ZM35.8816 21.5211C40.1907 21.5211 43.6951 25.0269 43.6951 29.3361H43.9951C43.9951 24.8613 40.3565 21.2211 35.8816 21.2211V21.5211ZM43.6951 29.3361C43.6951 33.6453 40.1907 37.1496 35.8816 37.1496V37.4496C40.3564 37.4496 43.9951 33.8109 43.9951 29.3361H43.6951Z" fill="#947DF0"/>
</g>
</svg>
