<svg width="72" height="73" viewBox="0 0 72 73" fill="none" xmlns="http://www.w3.org/2000/svg">
<circle cx="36" cy="36.3711" r="36" fill="#20CD7F" fill-opacity="0.1"/>
<path fill-rule="evenodd" clip-rule="evenodd" d="M49.1266 51.2812H38.2471C37.6261 51.2812 37.1221 50.7772 37.1221 50.1562C37.1221 49.5352 37.6261 49.0312 38.2471 49.0312H49.1266C49.7476 49.0312 50.2516 49.5352 50.2516 50.1562C50.2516 50.7772 49.7476 51.2812 49.1266 51.2812Z" fill="#20CD7F"/>
<mask id="mask0_331_720" style="mask-type:luminance" maskUnits="userSpaceOnUse" x="21" y="22" width="26" height="30">
<path fill-rule="evenodd" clip-rule="evenodd" d="M21.001 22.8711H46.7719V51.2804H21.001V22.8711Z" fill="white"/>
</mask>
<g mask="url(#mask0_331_720)">
<path fill-rule="evenodd" clip-rule="evenodd" d="M37.6664 25.8961L23.5439 43.5586C23.2874 43.8796 23.1929 44.2936 23.2874 44.6911L24.3089 49.0186L28.8674 48.9616C29.3009 48.9571 29.7014 48.7636 29.9669 48.4336C34.7924 42.3961 43.9919 30.8851 44.2529 30.5476C44.4989 30.1486 44.5949 29.5846 44.4659 29.0416C44.3339 28.4851 43.9874 28.0126 43.4879 27.7111C43.3814 27.6376 40.8539 25.6756 40.7759 25.6141C39.8249 24.8521 38.4374 24.9841 37.6664 25.8961ZM23.4209 51.2806C22.9004 51.2806 22.4474 50.9236 22.3259 50.4151L21.0974 45.2086C20.8439 44.1301 21.0959 43.0171 21.7874 42.1531L35.9174 24.4801C35.9234 24.4741 35.9279 24.4666 35.9339 24.4606C37.4834 22.6081 40.2854 22.3351 42.1754 23.8516C42.2504 23.9101 44.7599 25.8601 44.7599 25.8601C45.6719 26.4031 46.3844 27.3736 46.6544 28.5226C46.9229 29.6596 46.7279 30.8326 46.1024 31.8241C46.0559 31.8976 46.0154 31.9606 31.7234 49.8406C31.0349 50.6986 30.0029 51.1981 28.8944 51.2116L23.4359 51.2806H23.4209Z" fill="#20CD7F"/>
</g>
<path fill-rule="evenodd" clip-rule="evenodd" d="M42.3351 35.8981C42.0951 35.8981 41.8551 35.8216 41.6496 35.6656L33.4716 29.3837C32.9796 29.0057 32.8866 28.3007 33.2646 27.8057C33.6441 27.3137 34.3491 27.2222 34.8426 27.6002L43.0221 33.8806C43.5141 34.2586 43.6071 34.9651 43.2276 35.4586C43.0071 35.7466 42.6726 35.8981 42.3351 35.8981Z" fill="#20CD7F"/>
</svg>
