<svg width="140" height="103" viewBox="0 0 140 103" fill="none" xmlns="http://www.w3.org/2000/svg">
<path fill-rule="evenodd" clip-rule="evenodd" d="M104.699 76.2574C115.5 73.6375 126.331 70.1868 137.566 71.0662C138.235 71.1164 138.824 70.6243 138.883 69.9602C138.937 69.2974 138.444 68.7165 137.774 68.6617C126.277 67.7629 115.184 71.2338 104.132 73.9159C103.478 74.0713 103.074 74.7281 103.232 75.3739C103.385 76.021 104.044 76.4128 104.699 76.2574Z" fill="black"/>
<path fill-rule="evenodd" clip-rule="evenodd" d="M99.6055 61.1077C102.135 57.1674 105.176 53.9088 109.286 51.596C109.874 51.2661 110.08 50.5301 109.753 49.9513C109.422 49.3739 108.677 49.173 108.095 49.5016C103.625 52.016 100.307 55.5389 97.5562 59.8212C97.1927 60.3843 97.3571 61.1297 97.9261 61.4839C98.4902 61.8389 99.2467 61.6696 99.6055 61.1077Z" fill="black"/>
<path fill-rule="evenodd" clip-rule="evenodd" d="M81.3945 30.3708C81.5352 24.7603 83.4661 19.8835 87.3091 15.7056C87.762 15.2127 87.729 14.4496 87.2313 14.0039C86.7384 13.5571 85.9669 13.5952 85.514 14.0881C81.2614 18.7134 79.1173 24.1121 78.9613 30.3242C78.9428 30.9894 79.4785 31.539 80.1477 31.5522C80.8217 31.5646 81.3807 31.0348 81.3945 30.3708Z" fill="black"/>
<path fill-rule="evenodd" clip-rule="evenodd" d="M26.6395 37.4785C26.0113 38.7853 25.4992 40.1492 25.1293 41.5544C24.9642 42.1801 24.7273 43.4793 24.9075 44.4907C25.0957 45.5693 25.6961 46.361 26.7531 46.5794C28.1569 46.8685 29.1277 46.5391 29.7894 45.9593C30.4268 45.4021 30.8109 44.5396 30.9187 43.4925C31.1237 41.4911 30.2766 38.7435 29.4899 37.2568C30.1976 36.002 31.0242 34.8145 31.9529 33.7069C38.8705 25.4577 51.9526 24.3107 63.9562 30.6571C68.1575 32.8795 71.5339 39.0062 74.2728 45.8588C78.5387 56.5281 81.0888 69.038 81.9516 72.6721C82.1667 73.569 82.393 74.0748 82.4684 74.1678C82.8287 74.6278 83.2553 74.6581 83.542 74.6362C83.9559 74.6 84.2512 74.4411 84.4704 74.2428C84.766 73.9721 84.9641 73.5819 84.9658 73.0613C84.9645 72.7744 84.8833 72.3962 84.7673 72.0009C84.684 71.7275 84.5467 71.4412 84.5502 71.2283C84.5779 69.8635 84.6888 68.5082 84.7879 67.1467C85.1105 62.5726 85.9272 58.1484 86.9521 53.6733C90.2075 39.4543 93.0576 24.5883 101.323 12.2048C101.694 11.6493 101.544 10.9006 100.982 10.5364C100.425 10.171 99.6703 10.3264 99.2951 10.8837C90.8631 23.5127 87.8996 38.6519 84.5786 53.1529C83.7074 56.9594 82.9832 60.7315 82.5732 64.584C81.0545 58.3704 78.7117 49.8338 75.5411 42.5748C72.7219 36.1187 69.1948 30.6906 65.1109 28.53C51.9615 21.5775 37.6587 23.1374 30.0845 32.1734C29.2745 33.1405 28.5303 34.1647 27.8694 35.2365C20.6555 27.8316 9.27414 27.1385 1.15895 33.7792C0.637523 34.2047 0.563751 34.9645 0.988413 35.4766C1.41778 35.9874 2.18321 36.0585 2.70463 35.6331C10.0175 29.6492 20.3495 30.4723 26.6395 37.4785ZM28.1033 40.2125C27.8647 40.8469 27.6597 41.4933 27.4832 42.152C27.3911 42.5048 27.2477 43.174 27.275 43.7841C27.2829 43.9266 27.3348 44.1391 27.361 44.2368C27.7281 44.308 28.0026 44.3162 28.182 44.1579C28.4069 43.962 28.4589 43.6289 28.4968 43.2622C28.5931 42.3418 28.4001 41.2076 28.1033 40.2125Z" fill="black"/>
</svg>
